<?xml version="1.0" encoding="utf-8"?>
<!-- Generator: Adobe Illustrator 25.0.0, SVG Export Plug-In . SVG Version: 6.00 Build 0)  -->
<svg version="1.1" id="Layer_1" xmlns="http://www.w3.org/2000/svg" xmlns:xlink="http://www.w3.org/1999/xlink" x="0px" y="0px"
	 viewBox="0 0 116 116" style="enable-background:new 0 0 116 116;" xml:space="preserve">
<style type="text/css">
	.st0{fill-rule:evenodd;clip-rule:evenodd;}
</style>
<desc>Created with Sketch.</desc>
<path class="st0" d="M112.1,43.4c-0.1-0.4-0.2-0.7-0.3-0.9C104.8,19.4,83.2,2.5,57.7,2.5c-25.4,0-47,16.8-54.1,39.9
	c-0.1,0.2-0.2,0.5-0.3,1L112.1,43.4z M67.7,53.2l37.2,37.4c-0.1,0.2-0.3,0.4-0.3,0.5c-10.2,14.8-27.3,24.5-46.6,24.5
	c-19.1,0-36-9.5-46.2-24c0-0.1-0.1-0.2-0.2-0.3l0,0l37.6-38.1H67.7z M58.5,61c-4.6,0-8.3,3.7-8.3,8.3c0,4.6,3.7,8.3,8.3,8.3
	s8.3-3.7,8.3-8.3C66.8,64.7,63.1,61,58.5,61z M35.6,53.2L1.8,53.1c0,0.1,0,0.2,0,0.3c-0.2,1.9-0.3,3.8-0.3,5.7
	c0,8.3,1.8,16.1,5,23.2c0,0.1,0.1,0.2,0.1,0.3L35.6,53.2z M80.4,53.3l33.8-0.1c0,0.1,0,0.2,0,0.3c0.2,1.9,0.3,3.8,0.3,5.7
	c0,8.3-1.8,16.1-5,23.2c0,0.1-0.1,0.2-0.1,0.3L80.4,53.3z"/>
</svg>
